<?xml version="1.0" standalone="no"?>
<!DOCTYPE svg PUBLIC "-//W3C//DTD SVG 20010904//EN"
 "http://www.w3.org/TR/2001/REC-SVG-20010904/DTD/svg10.dtd">
<svg version="1.0" xmlns="http://www.w3.org/2000/svg"
 width="500.000000pt" height="500.000000pt" viewBox="0 0 500.000000 500.000000"
 preserveAspectRatio="xMidYMid meet">
<metadata>
Created by potrace 1.16, written by Peter Selinger 2001-2019
</metadata>
<g transform="translate(0.000000,500.000000) scale(0.100000,-0.100000)"
fill="#000000" stroke="none">
<path d="M1255 3401 c-160 -26 -335 -109 -459 -218 -40 -36 -43 -45 -21 -63
12 -10 23 -5 62 27 173 143 346 206 563 206 229 0 423 -79 593 -242 76 -73 86
-97 35 -87 -18 4 -49 10 -68 13 -20 4 -63 28 -99 55 -78 60 -153 99 -251 130
-65 20 -94 23 -220 22 -141 0 -148 -2 -242 -36 -102 -38 -211 -103 -266 -161
l-33 -34 43 -49 c23 -27 70 -79 104 -115 34 -37 74 -92 89 -123 19 -38 54 -81
114 -138 47 -45 94 -91 103 -103 l17 -21 -52 17 c-109 38 -280 18 -433 -51
-60 -27 -72 -36 -85 -68 -7 -20 -15 -40 -17 -44 -2 -4 39 5 90 19 51 14 124
34 162 44 79 21 132 24 173 8 31 -11 70 -44 84 -71 8 -15 2 -14 -35 6 -80 42
-109 42 -273 -4 -81 -23 -169 -44 -195 -47 -28 -3 -48 -11 -48 -18 0 -25 53
-132 96 -191 92 -130 232 -230 399 -285 60 -20 90 -24 210 -24 119 0 151 4
215 23 88 28 184 77 260 136 41 31 71 45 118 54 34 7 67 10 73 6 14 -9 -88
-113 -167 -170 -255 -183 -594 -210 -880 -68 -217 107 -380 308 -446 552 -16
59 -21 109 -22 212 -1 163 14 230 85 378 40 84 49 110 43 135 l-6 30 -19 -24
c-36 -46 -97 -174 -124 -259 -21 -66 -28 -112 -32 -205 -9 -196 27 -350 118
-512 60 -106 225 -271 330 -331 209 -117 456 -150 684 -92 162 41 352 159 458
283 l49 57 977 0 c845 0 985 2 1036 15 171 45 303 180 341 352 21 94 15 311
-10 390 -39 122 -155 243 -283 295 l-58 23 -1001 3 -1000 2 -64 72 c-111 124
-276 225 -437 268 -86 24 -291 35 -378 21z m2838 -481 c72 -22 164 -86 210
-145 101 -128 122 -326 51 -468 -56 -111 -131 -178 -249 -222 l-65 -25 -868 0
c-768 0 -874 2 -915 16 -40 14 -45 18 -37 34 9 17 13 17 56 4 70 -21 1717 -21
1785 0 198 60 318 244 289 445 -16 113 -77 208 -180 278 -96 65 -71 63 -997
63 -686 0 -848 -3 -891 -14 -49 -13 -53 -13 -62 5 -9 16 -5 20 37 33 41 12
183 15 909 15 837 1 864 0 927 -19z m-1245 -177 c12 -32 37 -102 56 -155 l35
-98 -43 0 c-38 0 -45 3 -50 25 -6 23 -11 25 -65 25 -54 0 -59 -2 -65 -25 -5
-21 -12 -25 -46 -25 -22 0 -40 3 -40 6 0 6 72 206 99 277 9 24 16 27 54 27
l44 0 21 -57z m202 -98 l0 -155 -35 0 -35 0 0 155 0 155 35 0 35 0 0 -155z
m273 127 c45 -42 41 -107 -8 -147 l-25 -20 35 -58 34 -57 -43 0 c-43 0 -45 2
-75 54 -43 77 -51 78 -51 7 l0 -61 -40 0 -40 0 0 156 0 156 94 -4 c82 -3 98
-6 119 -26z m157 -127 l0 -155 -35 0 -35 0 0 155 0 155 35 0 35 0 0 -155z
m239 140 c28 -14 41 -33 41 -61 0 -21 -76 -19 -84 2 -8 21 -50 14 -54 -9 -3
-13 13 -24 61 -46 36 -16 70 -39 76 -50 19 -35 13 -71 -18 -102 -25 -25 -37
-29 -84 -29 -44 0 -61 5 -85 25 -16 14 -32 34 -35 45 -5 18 0 20 38 20 30 0
45 -5 49 -16 9 -24 61 -15 61 11 0 15 -14 25 -52 41 -74 29 -93 49 -93 96 0
58 34 88 100 88 28 0 64 -7 79 -15z m-1866 -375 c47 -74 83 -138 81 -141 -7
-12 -134 11 -254 47 -158 46 -217 49 -284 11 -27 -15 -51 -25 -54 -22 -11 10
77 82 108 89 65 13 73 11 323 -58 48 -14 87 -20 87 -15 0 5 -31 72 -70 150
-72 145 -87 184 -45 114 14 -22 62 -101 108 -175z m-631 -185 c47 -40 137 -30
169 18 11 16 185 2 287 -23 l94 -22 51 21 52 21 -46 -44 -47 -45 -63 15 c-208
50 -288 55 -331 19 -25 -21 -40 -25 -93 -25 -54 0 -68 4 -95 26 -30 25 -35 26
-108 20 -42 -3 -114 -15 -160 -26 -46 -11 -93 -20 -106 -20 -21 0 -112 68
-102 77 2 2 23 -5 47 -17 l43 -22 95 20 c53 12 105 23 116 25 11 3 53 5 94 6
64 1 77 -2 103 -24z"/>
<path d="M711 2810 c-57 -132 -78 -329 -50 -460 l11 -51 92 151 c51 82 96 154
101 158 4 4 -10 -28 -31 -70 -21 -43 -35 -80 -32 -83 3 -3 50 9 104 27 89 29
111 33 215 33 116 0 116 0 100 20 -67 84 -159 135 -242 135 -45 0 -104 27
-134 60 l-20 23 23 -7 c37 -12 25 1 -23 25 -25 12 -45 25 -45 28 -1 3 -11 19
-24 34 l-23 28 -22 -51z"/>
</g>
</svg>
