<?xml version="1.0" encoding="utf-8"?>
<!-- Generator: Adobe Illustrator 27.5.0, SVG Export Plug-In . SVG Version: 6.00 Build 0)  -->
<svg version="1.1" id="Layer_1" xmlns="http://www.w3.org/2000/svg" xmlns:xlink="http://www.w3.org/1999/xlink" x="0px" y="0px"
	 viewBox="0 0 607.333 450" style="enable-background:new 0 0 607.333 450;" xml:space="preserve">
<rect x="0" style="fill:#FFFFFF;" width="607.333" height="450"/>
<g>
	<polygon style="opacity:0.05;" points="141.948,416.452 218.053,396.294 287.08,362.182 309.379,350.489 316.583,346.92 
		381.921,379.187 461.605,333.544 240.703,275.952 	"/>
	<polygon style="fill:#53677A;" points="309.379,350.489 200.097,295.837 200.097,83.987 309.379,138.64 	"/>
	<polygon style="fill:#839DC2;" points="309.378,138.628 200.097,83.988 301.918,33.548 411.199,88.188 	"/>
	<polygon style="fill:#778FB0;" points="411.201,300.039 309.379,350.489 309.379,138.64 411.201,88.189 	"/>
	<polygon style="fill:#737B7D;" points="404.86,296.172 315.72,340.752 315.72,281.076 404.86,236.496 	"/>
	<g>
		<polygon style="fill:#E4F4F7;" points="476.863,331.879 404.86,295.87 403.388,248.628 403.388,246.931 476.863,283.677 		"/>
		<polygon style="fill:#B5C2C4;" points="475.391,332.84 403.388,296.831 403.388,248.628 475.391,284.637 		"/>
	</g>
	<g>
		<defs>
			<polygon id="SVGID_1_" points="404.86,296.172 315.72,340.752 315.72,281.076 404.86,236.496 			"/>
		</defs>
		<clipPath id="SVGID_00000056426330511428691550000005659988572978358154_">
			<use xlink:href="#SVGID_1_"  style="overflow:visible;"/>
		</clipPath>
		<g style="clip-path:url(#SVGID_00000056426330511428691550000005659988572978358154_);">
			<polygon style="fill:#2C2F30;" points="391.446,232.26 390.777,231.938 375.192,239.49 366.43,253.693 372.009,250.746 			"/>
			<g>
				<polygon style="fill:#2C2F30;" points="389.76,291.281 315.26,330.302 314.417,329.842 314.417,279.256 390.603,241.155 
					391.446,241.615 				"/>
				<polygon style="fill:#4F5557;" points="391.446,292.201 315.26,330.302 315.26,279.716 391.446,241.615 				"/>
			</g>
			<polygon style="fill:#414647;" points="315.26,329.552 318.853,327.666 318.853,331.491 			"/>
			<g>
				<polygon style="fill:#9BA5A8;" points="316.761,329.578 315.937,329.172 315.937,280.88 316.761,281.287 				"/>
				<polygon style="fill:#FFFFFF;" points="316.761,281.286 315.937,280.88 392.108,243.297 392.931,243.703 				"/>
				<polygon style="fill:#8A9396;" points="392.931,291.995 316.761,329.578 316.761,281.287 392.931,243.703 				"/>
			</g>
			<g>
				<polygon style="fill:#9BA5A8;" points="317.685,330.051 316.862,329.644 316.862,281.353 317.685,281.759 				"/>
				<polygon style="fill:#FFFFFF;" points="317.685,281.759 316.862,281.353 393.032,243.769 393.856,244.175 				"/>
				<polygon style="fill:#8A9396;" points="393.856,292.467 317.685,330.051 317.685,281.759 393.856,244.175 				"/>
			</g>
			<g>
				<polygon style="fill:#9BA5A8;" points="318.609,330.523 317.786,330.116 317.786,281.825 318.609,282.232 				"/>
				<polygon style="fill:#FFFFFF;" points="318.609,282.231 317.786,281.825 393.957,244.242 394.78,244.648 				"/>
				<polygon style="fill:#8A9396;" points="394.78,292.939 318.609,330.523 318.609,282.232 394.78,244.648 				"/>
			</g>
			<g>
				<polygon style="fill:#2C2F30;" points="394.196,293.746 319.696,332.767 318.853,332.307 318.853,281.721 395.039,243.62 
					395.883,244.079 				"/>
				<polygon style="fill:#4F5557;" points="395.883,294.666 319.696,332.767 319.696,282.181 395.883,244.079 				"/>
			</g>
			<polygon style="fill:#4F5557;" points="391.446,241.615 391.446,232.26 375.678,239.901 367.129,253.776 			"/>
			<polygon style="fill:#2C2F30;" points="314.417,329.842 319.696,332.767 319.696,331.945 314.417,329.097 			"/>
			<polygon style="fill:#FFFFFF;" points="388.547,241.98 376.481,248.014 376.481,245.26 388.547,239.225 			"/>
			<polygon style="fill:#FFFFFF;" points="332.625,289.411 332.625,314.033 329.87,315.41 329.87,290.788 			"/>
		</g>
		<g style="clip-path:url(#SVGID_00000056426330511428691550000005659988572978358154_);">
			<polygon style="fill:#2C2F30;" points="397.095,235.595 396.426,235.273 380.841,242.825 372.079,257.028 377.657,254.081 			"/>
			<g>
				<polygon style="fill:#2C2F30;" points="395.408,294.616 320.908,333.637 320.065,333.177 320.065,282.591 396.251,244.49 
					397.095,244.949 				"/>
				<polygon style="fill:#4F5557;" points="397.095,295.536 320.908,333.637 320.908,283.051 397.095,244.949 				"/>
			</g>
			<polygon style="fill:#414647;" points="320.908,332.887 324.502,331.001 324.502,334.825 			"/>
			<g>
				<polygon style="fill:#9BA5A8;" points="322.409,332.913 321.586,332.506 321.586,284.215 322.409,284.622 				"/>
				<polygon style="fill:#FFFFFF;" points="322.409,284.621 321.586,284.215 397.757,246.632 398.58,247.038 				"/>
				<polygon style="fill:#8A9396;" points="398.58,295.329 322.409,332.913 322.409,284.622 398.58,247.038 				"/>
			</g>
			<g>
				<polygon style="fill:#9BA5A8;" points="323.333,333.385 322.51,332.979 322.51,284.687 323.333,285.094 				"/>
				<polygon style="fill:#FFFFFF;" points="323.333,285.093 322.51,284.687 398.681,247.104 399.504,247.51 				"/>
				<polygon style="fill:#8A9396;" points="399.504,295.802 323.333,333.385 323.333,285.094 399.504,247.51 				"/>
			</g>
			<g>
				<polygon style="fill:#9BA5A8;" points="324.258,333.858 323.434,333.451 323.434,285.16 324.258,285.566 				"/>
				<polygon style="fill:#FFFFFF;" points="324.258,285.566 323.434,285.16 399.605,247.576 400.428,247.982 				"/>
				<polygon style="fill:#8A9396;" points="400.429,296.274 324.258,333.858 324.258,285.566 400.429,247.982 				"/>
			</g>
			<g>
				<polygon style="fill:#2C2F30;" points="399.845,297.081 325.345,336.102 324.502,335.642 324.502,285.056 400.688,246.954 
					401.531,247.414 				"/>
				<polygon style="fill:#4F5557;" points="401.531,298 325.345,336.102 325.345,285.515 401.531,247.414 				"/>
			</g>
			<polygon style="fill:#4F5557;" points="397.095,244.949 397.095,235.595 381.327,243.236 372.777,257.111 			"/>
			<polygon style="fill:#2C2F30;" points="320.065,333.177 325.345,336.102 325.345,335.28 320.065,332.432 			"/>
			<polygon style="fill:#FFFFFF;" points="394.195,245.314 382.13,251.348 382.13,248.594 394.195,242.56 			"/>
			<polygon style="fill:#FFFFFF;" points="338.273,292.746 338.273,317.368 335.519,318.745 335.519,294.123 			"/>
		</g>
	</g>
	<g>
		<polygon style="fill:#55B05F;" points="404.14,239.201 403.471,238.879 387.886,246.431 379.124,260.634 384.703,257.686 		"/>
		<g>
			<polygon style="fill:#55B05F;" points="402.454,298.222 327.954,337.243 327.111,336.783 327.111,286.197 403.297,248.096 
				404.14,248.555 			"/>
			<polygon style="fill:#74E37F;" points="404.14,299.142 327.954,337.243 327.954,286.657 404.14,248.555 			"/>
		</g>
		<polygon style="fill:#414647;" points="327.954,336.493 331.547,334.607 331.547,338.431 		"/>
		<g>
			<polygon style="fill:#9BA5A8;" points="329.455,336.519 328.631,336.112 328.631,287.821 329.455,288.228 			"/>
			<polygon style="fill:#FFFFFF;" points="329.455,288.227 328.631,287.821 404.802,250.238 405.625,250.644 			"/>
			<polygon style="fill:#8A9396;" points="405.626,298.935 329.455,336.519 329.455,288.228 405.626,250.644 			"/>
		</g>
		<g>
			<polygon style="fill:#9BA5A8;" points="330.379,336.991 329.556,336.585 329.556,288.293 330.379,288.7 			"/>
			<polygon style="fill:#FFFFFF;" points="330.379,288.699 329.556,288.293 405.726,250.71 406.55,251.116 			"/>
			<polygon style="fill:#8A9396;" points="406.55,299.408 330.379,336.991 330.379,288.7 406.55,251.116 			"/>
		</g>
		<g>
			<polygon style="fill:#9BA5A8;" points="331.303,337.464 330.48,337.057 330.48,288.766 331.303,289.172 			"/>
			<polygon style="fill:#FFFFFF;" points="331.303,289.172 330.48,288.766 406.651,251.182 407.474,251.589 			"/>
			<polygon style="fill:#8A9396;" points="407.474,299.88 331.303,337.464 331.303,289.172 407.474,251.589 			"/>
		</g>
		<g>
			<polygon style="fill:#55B05F;" points="406.89,300.687 332.39,339.708 331.547,339.248 331.547,288.662 407.733,250.56 
				408.577,251.02 			"/>
			<polygon style="fill:#74E37F;" points="408.577,301.607 332.39,339.708 332.39,289.121 408.577,251.02 			"/>
		</g>
		<polygon style="fill:#74E37F;" points="404.14,248.555 404.14,239.201 388.372,246.842 379.823,260.716 		"/>
		<polygon style="fill:#2C2F30;" points="327.111,336.783 332.39,339.708 332.39,338.886 327.111,336.038 		"/>
		<polygon style="fill:#FFFFFF;" points="401.241,248.92 389.175,254.954 389.175,252.2 401.241,246.166 		"/>
		<polygon style="fill:#FFFFFF;" points="345.319,296.352 345.319,320.974 342.564,322.351 342.564,297.729 		"/>
		<polygon style="fill:#FFFFFF;" points="362.144,271.285 376.46,250.238 389.175,257.948 		"/>
	</g>
	<g>
		<polygon style="fill:#2C2F30;" points="417.597,246.413 416.928,246.091 401.343,253.643 392.581,267.846 398.159,264.898 		"/>
		<g>
			<polygon style="fill:#2C2F30;" points="415.91,305.434 341.41,344.455 340.567,343.995 340.567,293.409 416.754,255.307 
				417.597,255.767 			"/>
			<polygon style="fill:#4F5557;" points="417.597,306.354 341.41,344.455 341.41,293.869 417.597,255.767 			"/>
		</g>
		<polygon style="fill:#414647;" points="341.41,343.705 345.004,341.819 345.004,345.643 		"/>
		<g>
			<polygon style="fill:#9BA5A8;" points="342.911,343.731 342.088,343.324 342.088,295.033 342.911,295.44 			"/>
			<polygon style="fill:#FFFFFF;" points="342.911,295.439 342.088,295.033 418.259,257.449 419.082,257.856 			"/>
			<polygon style="fill:#8A9396;" points="419.082,306.147 342.911,343.731 342.911,295.44 419.082,257.856 			"/>
		</g>
		<g>
			<polygon style="fill:#9BA5A8;" points="343.836,344.203 343.012,343.797 343.012,295.505 343.836,295.912 			"/>
			<polygon style="fill:#FFFFFF;" points="343.836,295.911 343.012,295.505 419.183,257.922 420.007,258.328 			"/>
			<polygon style="fill:#8A9396;" points="420.007,306.62 343.836,344.203 343.836,295.912 420.007,258.328 			"/>
		</g>
		<g>
			<polygon style="fill:#9BA5A8;" points="344.76,344.676 343.937,344.269 343.937,295.978 344.76,296.384 			"/>
			<polygon style="fill:#FFFFFF;" points="344.76,296.384 343.937,295.978 420.107,258.394 420.931,258.801 			"/>
			<polygon style="fill:#8A9396;" points="420.931,307.092 344.76,344.676 344.76,296.384 420.931,258.801 			"/>
		</g>
		<g>
			<polygon style="fill:#2C2F30;" points="420.347,307.899 345.847,346.92 345.004,346.46 345.004,295.874 421.19,257.772 
				422.033,258.232 			"/>
			<polygon style="fill:#4F5557;" points="422.033,308.819 345.847,346.92 345.847,296.333 422.033,258.232 			"/>
		</g>
		<polygon style="fill:#4F5557;" points="417.597,255.767 417.597,246.413 401.829,254.054 393.28,267.928 		"/>
		<polygon style="fill:#2C2F30;" points="340.567,343.995 345.847,346.92 345.847,346.098 340.567,343.25 		"/>
		<polygon style="fill:#FFFFFF;" points="414.698,256.132 402.632,262.166 402.632,259.412 414.698,253.378 		"/>
		<polygon style="fill:#FFFFFF;" points="358.775,303.564 358.775,328.186 356.021,329.563 356.021,304.941 		"/>
	</g>
	<g>
		<polygon style="fill:#8C482F;" points="424.128,250.019 423.459,249.697 407.874,257.249 399.112,271.452 404.69,268.504 		"/>
		<g>
			<polygon style="fill:#8C482F;" points="422.441,309.04 347.941,348.061 347.098,347.601 347.098,297.015 423.284,258.914 
				424.128,259.373 			"/>
			<polygon style="fill:#D6704B;" points="424.128,309.96 347.941,348.061 347.941,297.475 424.128,259.373 			"/>
		</g>
		<polygon style="fill:#414647;" points="347.941,347.311 351.535,345.425 351.535,349.249 		"/>
		<g>
			<polygon style="fill:#9BA5A8;" points="349.442,347.337 348.619,346.93 348.619,298.639 349.442,299.046 			"/>
			<polygon style="fill:#FFFFFF;" points="349.442,299.045 348.619,298.639 424.79,261.056 425.613,261.462 			"/>
			<polygon style="fill:#8A9396;" points="425.613,309.753 349.442,347.337 349.442,299.046 425.613,261.462 			"/>
		</g>
		<g>
			<polygon style="fill:#9BA5A8;" points="350.366,347.81 349.543,347.403 349.543,299.111 350.366,299.518 			"/>
			<polygon style="fill:#FFFFFF;" points="350.366,299.517 349.543,299.111 425.714,261.528 426.537,261.934 			"/>
			<polygon style="fill:#8A9396;" points="426.537,310.226 350.366,347.81 350.366,299.518 426.537,261.934 			"/>
		</g>
		<g>
			<polygon style="fill:#9BA5A8;" points="351.291,348.282 350.467,347.875 350.467,299.584 351.291,299.99 			"/>
			<polygon style="fill:#FFFFFF;" points="351.291,299.99 350.467,299.584 426.638,262 427.461,262.406 			"/>
			<polygon style="fill:#8A9396;" points="427.462,310.698 351.291,348.282 351.291,299.99 427.462,262.407 			"/>
		</g>
		<g>
			<polygon style="fill:#8C482F;" points="426.878,311.505 352.378,350.526 351.535,350.066 351.535,299.48 427.721,261.378 
				428.564,261.838 			"/>
			<polygon style="fill:#D6704B;" points="428.564,312.424 352.378,350.526 352.378,299.94 428.564,261.838 			"/>
		</g>
		<polygon style="fill:#D6704B;" points="424.128,259.373 424.128,250.019 408.36,257.66 399.81,271.534 		"/>
		<polygon style="fill:#2C2F30;" points="347.098,347.601 352.378,350.526 352.378,349.704 347.098,346.856 		"/>
		<polygon style="fill:#FFFFFF;" points="421.228,259.738 409.163,265.772 409.163,263.018 421.228,256.984 		"/>
		<polygon style="fill:#FFFFFF;" points="365.306,307.17 365.306,331.792 362.552,333.169 362.552,308.547 		"/>
	</g>
	<g>
		<polygon style="fill:#2C2F30;" points="437.189,257.231 436.52,256.909 420.935,264.461 412.173,278.664 417.752,275.716 		"/>
		<g>
			<polygon style="fill:#2C2F30;" points="435.503,316.252 361.003,355.273 360.16,354.813 360.16,304.227 436.346,266.125 
				437.189,266.585 			"/>
			<polygon style="fill:#4F5557;" points="437.189,317.172 361.003,355.273 361.003,304.687 437.189,266.585 			"/>
		</g>
		<polygon style="fill:#414647;" points="361.003,354.523 364.596,352.637 364.596,356.461 		"/>
		<g>
			<polygon style="fill:#9BA5A8;" points="362.504,354.549 361.68,354.142 361.68,305.851 362.504,306.258 			"/>
			<polygon style="fill:#FFFFFF;" points="362.504,306.257 361.68,305.851 437.851,268.267 438.674,268.674 			"/>
			<polygon style="fill:#8A9396;" points="438.675,316.965 362.504,354.549 362.504,306.258 438.675,268.674 			"/>
		</g>
		<g>
			<polygon style="fill:#9BA5A8;" points="363.428,355.022 362.605,354.615 362.605,306.323 363.428,306.73 			"/>
			<polygon style="fill:#FFFFFF;" points="363.428,306.729 362.605,306.323 438.775,268.74 439.599,269.146 			"/>
			<polygon style="fill:#8A9396;" points="439.599,317.438 363.428,355.022 363.428,306.73 439.599,269.146 			"/>
		</g>
		<g>
			<polygon style="fill:#9BA5A8;" points="364.352,355.494 363.529,355.087 363.529,306.796 364.352,307.202 			"/>
			<polygon style="fill:#FFFFFF;" points="364.352,307.202 363.529,306.796 439.7,269.212 440.523,269.618 			"/>
			<polygon style="fill:#8A9396;" points="440.523,317.91 364.352,355.494 364.352,307.202 440.523,269.619 			"/>
		</g>
		<g>
			<polygon style="fill:#2C2F30;" points="439.939,318.717 365.439,357.738 364.596,357.278 364.596,306.692 440.783,268.59 
				441.626,269.05 			"/>
			<polygon style="fill:#4F5557;" points="441.626,319.637 365.439,357.738 365.439,307.151 441.626,269.05 			"/>
		</g>
		<polygon style="fill:#4F5557;" points="437.189,266.585 437.189,257.231 421.421,264.872 412.872,278.746 		"/>
		<polygon style="fill:#2C2F30;" points="360.16,354.813 365.439,357.738 365.439,356.916 360.16,354.068 		"/>
		<polygon style="fill:#FFFFFF;" points="434.29,266.95 422.224,272.984 422.224,270.23 434.29,264.196 		"/>
		<polygon style="fill:#FFFFFF;" points="378.368,314.382 378.368,339.004 375.613,340.381 375.613,315.759 		"/>
	</g>
	<g>
		<polygon style="fill:#507DA6;" points="450.251,264.443 449.582,264.121 433.997,271.673 425.235,285.876 430.813,282.928 		"/>
		<g>
			<polygon style="fill:#507DA6;" points="448.564,323.464 374.064,362.485 373.221,362.025 373.221,311.439 449.408,273.337 
				450.251,273.797 			"/>
			<polygon style="fill:#74ADE3;" points="450.251,324.384 374.064,362.485 374.064,311.899 450.251,273.797 			"/>
		</g>
		<polygon style="fill:#414647;" points="374.064,361.735 377.658,359.849 377.658,363.673 		"/>
		<g>
			<polygon style="fill:#9BA5A8;" points="375.565,361.761 374.742,361.354 374.742,313.063 375.565,313.47 			"/>
			<polygon style="fill:#FFFFFF;" points="375.565,313.469 374.742,313.063 450.913,275.479 451.736,275.886 			"/>
			<polygon style="fill:#8A9396;" points="451.736,324.177 375.565,361.761 375.565,313.47 451.736,275.886 			"/>
		</g>
		<g>
			<polygon style="fill:#9BA5A8;" points="376.49,362.233 375.666,361.827 375.666,313.535 376.49,313.942 			"/>
			<polygon style="fill:#FFFFFF;" points="376.49,313.941 375.666,313.535 451.837,275.952 452.66,276.358 			"/>
			<polygon style="fill:#8A9396;" points="452.66,324.65 376.49,362.233 376.49,313.942 452.66,276.358 			"/>
		</g>
		<g>
			<polygon style="fill:#9BA5A8;" points="377.414,362.706 376.59,362.299 376.59,314.008 377.414,314.414 			"/>
			<polygon style="fill:#FFFFFF;" points="377.414,314.414 376.59,314.008 452.761,276.424 453.585,276.831 			"/>
			<polygon style="fill:#8A9396;" points="453.585,325.122 377.414,362.706 377.414,314.414 453.585,276.831 			"/>
		</g>
		<g>
			<polygon style="fill:#507DA6;" points="453.001,325.929 378.501,364.95 377.658,364.49 377.658,313.904 453.844,275.802 
				454.687,276.262 			"/>
			<polygon style="fill:#74ADE3;" points="454.687,326.849 378.501,364.95 378.501,314.363 454.687,276.262 			"/>
		</g>
		<polygon style="fill:#74ADE3;" points="450.251,273.797 450.251,264.443 434.483,272.084 425.934,285.958 		"/>
		<polygon style="fill:#2C2F30;" points="373.221,362.025 378.501,364.95 378.501,364.128 373.221,361.28 		"/>
		<polygon style="fill:#FFFFFF;" points="447.351,274.162 435.286,280.196 435.286,277.442 447.351,271.408 		"/>
		<polygon style="fill:#FFFFFF;" points="391.429,321.594 391.429,346.216 388.675,347.593 388.675,322.971 		"/>
	</g>
	<g>
		<polygon style="fill:#E4F4F7;" points="389.195,376.018 317.192,340.009 315.72,292.767 315.72,291.07 389.195,327.816 		"/>
		<polygon style="fill:#B5C2C4;" points="387.722,376.979 315.72,340.97 315.72,292.767 387.722,328.776 		"/>
	</g>
	<g>
		<polygon style="fill:#415261;" points="477.857,330.407 389.195,379.187 385.054,376.754 385.054,317.078 477.857,270.731 		"/>
		<polygon style="fill:#394754;" points="481.998,332.84 389.195,379.187 389.195,337.234 387.124,330.111 389.195,319.511 
			481.998,273.164 479.053,284.276 481.998,290.91 		"/>
		<polygon style="fill:#7F98BC;" points="481.998,290.91 389.195,337.234 387.124,330.111 479.053,284.276 		"/>
		<polygon style="fill:#566B7F;" points="481.998,273.164 481.998,281.381 389.195,327.059 389.195,319.511 		"/>
		<polygon style="fill:#415261;" points="389.195,319.511 389.195,327.059 385.054,324.989 385.054,317.078 		"/>
		<polygon style="fill:#7F98BC;" points="385.054,317.078 389.195,319.511 481.998,273.164 477.857,270.731 		"/>
		<polygon style="fill:#566B7F;" points="389.195,337.234 481.998,290.91 481.998,332.84 389.195,379.187 		"/>
	</g>
	<polygon style="fill:#FFFFFF;" points="367.731,302.944 370.561,291.349 400.149,286.949 	"/>
	<g>
		<polygon style="fill:#A3C0C9;" points="393.914,353.087 393.914,340.463 412.862,330.987 412.862,343.611 		"/>
		<polygon style="fill:#FFFFFF;" points="411.875,343.118 394.9,351.608 394.9,340.956 411.875,332.467 		"/>
	</g>
	<g>
		<polygon style="fill:#35434F;" points="404.86,159.663 315.72,204.243 315.72,144.567 404.86,99.987 		"/>
		<g>
			<g>
				<polygon style="fill:#566B7F;" points="404.86,159.664 314.226,205.084 314.226,163.132 312.155,156.009 314.226,145.408 
					404.86,99.989 401.915,111.101 404.86,117.735 				"/>
				<polygon style="fill:#7F98BC;" points="404.86,117.735 314.226,163.132 312.155,156.009 401.915,111.101 				"/>
				<polygon style="fill:#566B7F;" points="404.86,99.989 404.86,108.205 314.226,152.956 314.226,145.408 				"/>
				<polygon style="fill:#778FB0;" points="315.72,139.566 315.72,204.911 312.39,206.805 310.661,141.24 				"/>
				<polygon style="fill:#415261;" points="315.72,154.226 401.915,111.101 402.355,109.442 315.72,152.219 				"/>
			</g>
			<g>
				<polygon style="fill:#A3C0C9;" points="318.48,177.508 318.48,164.884 337.428,155.408 337.428,168.032 				"/>
				<polygon style="fill:#FFFFFF;" points="336.441,167.539 319.466,176.028 319.466,165.377 336.441,156.887 				"/>
			</g>
		</g>
		<g>
			<g>
				<polygon style="fill:#415261;" points="315.72,144.997 315.72,144.138 404.86,99.559 404.86,100.418 				"/>
			</g>
		</g>
	</g>
	<g>
		<polygon style="fill:#35434F;" points="404.86,228.346 315.72,272.926 315.72,213.25 404.86,168.67 		"/>
		<g>
			<g>
				<polygon style="fill:#566B7F;" points="404.86,228.347 314.226,273.767 314.226,231.814 312.155,224.692 314.226,214.091 
					404.86,168.671 401.915,179.783 404.86,186.418 				"/>
				<polygon style="fill:#7F98BC;" points="404.86,186.418 314.226,231.814 312.155,224.692 401.915,179.783 				"/>
				<polygon style="fill:#566B7F;" points="404.86,168.671 404.86,176.888 314.226,221.639 314.226,214.091 				"/>
				<polygon style="fill:#778FB0;" points="315.72,208.249 315.72,273.594 312.39,275.488 310.661,209.923 				"/>
				<polygon style="fill:#415261;" points="315.72,222.908 401.915,179.783 402.355,178.125 315.72,220.901 				"/>
			</g>
			<g>
				<polygon style="fill:#A3C0C9;" points="318.48,246.19 318.48,233.566 337.428,224.09 337.428,236.714 				"/>
				<polygon style="fill:#FFFFFF;" points="336.441,236.221 319.466,244.711 319.466,234.059 336.441,225.57 				"/>
			</g>
		</g>
		<g>
			<g>
				<polygon style="fill:#415261;" points="315.72,213.68 315.72,212.82 404.86,168.242 404.86,169.101 				"/>
			</g>
		</g>
	</g>
	<g>
		<g>
			<g>
				<g>
					<g>
						<polygon style="fill:#7086A5;" points="287.08,362.182 218.053,396.295 218.048,319.681 287.08,285.598 						"/>
						<polygon style="fill:#53677A;" points="218.053,396.294 141.469,357.994 141.469,281.41 218.053,319.71 						"/>
						<polygon style="fill:#7F98BC;" points="287.08,285.598 218.054,319.702 141.47,281.371 210.497,247.307 						"/>
						<polygon style="fill:#53677A;" points="144.491,281.372 210.497,248.817 284.059,285.599 218.054,318.192 						"/>
					</g>
				</g>
				<polygon style="fill:#7086A5;" points="210.497,248.817 210.497,314.409 218.054,318.192 284.059,285.599 				"/>
			</g>
			<g>
				<path style="fill:#3C4A57;" d="M186.621,323.55l-14.048-7.025c-2.727-1.364-4.937-4.68-4.937-7.406l0,0
					c0-0.595,0.11-1.107,0.303-1.538c-0.977,0.413-1.593,1.393-1.593,2.828c0,2.727,2.21,6.043,4.937,7.406l14.048,7.025
					c2.132,1.066,3.943,0.618,4.634-0.93C189.086,324.282,187.913,324.196,186.621,323.55z"/>
				<g>
					<defs>
						<path id="SVGID_00000181778668163575763830000011061732962884435856_" d="M190.269,322.372c0-2.727-2.21-6.042-4.937-7.406
							l-14.048-7.025c-1.292-0.646-2.464-0.732-3.344-0.36c-0.193,0.432-0.303,0.944-0.303,1.538l0,0
							c0,2.727,2.21,6.042,4.937,7.406l14.048,7.025c1.292,0.646,2.464,0.732,3.344,0.36
							C190.158,323.478,190.269,322.966,190.269,322.372L190.269,322.372z"/>
					</defs>
					<clipPath id="SVGID_00000110468422853874177690000004349301663941597868_">
						<use xlink:href="#SVGID_00000181778668163575763830000011061732962884435856_"  style="overflow:visible;"/>
					</clipPath>
					<polygon style="clip-path:url(#SVGID_00000110468422853874177690000004349301663941597868_);fill:#74ADE3;" points="
						172.607,294.968 172.607,318.92 186.079,323.623 186.079,301.165 					"/>
					<polygon style="clip-path:url(#SVGID_00000110468422853874177690000004349301663941597868_);fill:#74ADE3;" points="
						189.57,302.22 189.57,325.82 193.492,319.14 					"/>
					<polygon style="clip-path:url(#SVGID_00000110468422853874177690000004349301663941597868_);fill:#5B8FBD;" points="
						186.079,323.623 189.57,325.205 189.57,305.466 186.079,303.698 					"/>
					<polygon style="clip-path:url(#SVGID_00000110468422853874177690000004349301663941597868_);fill:#74ADE3;" points="
						169.116,293.697 169.116,314.02 165.145,307.36 					"/>
					<polygon style="clip-path:url(#SVGID_00000110468422853874177690000004349301663941597868_);fill:#5B8FBD;" points="
						172.607,302.791 169.116,301.604 169.116,314.02 172.607,318.92 					"/>
					<polygon style="clip-path:url(#SVGID_00000110468422853874177690000004349301663941597868_);fill:#FFFFFF;" points="
						184.263,326.724 173.891,321.537 173.891,298.659 184.263,303.846 					"/>
				</g>
			</g>
			<g>
				<polygon style="fill:#A3C0C9;" points="238.635,343.25 238.635,327.943 270.425,311.643 270.425,326.949 				"/>
				<polygon style="fill:#FFFFFF;" points="269.229,326.352 239.83,341.456 239.83,328.541 269.229,313.437 				"/>
			</g>
			<g>
				<defs>
					<polygon id="SVGID_00000105390400792753526840000016273351142073479326_" points="144.491,281.372 210.497,248.817 
						284.059,285.599 218.054,318.192 					"/>
				</defs>
				<clipPath id="SVGID_00000130625790500189695660000011663976721656707228_">
					<use xlink:href="#SVGID_00000105390400792753526840000016273351142073479326_"  style="overflow:visible;"/>
				</clipPath>
				<g style="clip-path:url(#SVGID_00000130625790500189695660000011663976721656707228_);">
					<g>
						<g>
							<polygon style="fill:#5583B0;" points="211.563,334.321 155.645,361.771 155.645,279.243 211.563,251.794 							"/>
							<g>
								<g>
									<polygon style="fill:#9BA5A8;" points="162.515,353.924 158.175,351.773 158.175,280.824 162.515,282.976 									"/>
									<polygon style="fill:#FFFFFF;" points="162.514,282.971 158.175,280.825 210.223,255.394 214.562,257.54 									"/>
									<polygon style="fill:#D9D9D9;" points="214.563,328.488 162.515,353.924 162.515,282.976 214.563,257.54 									"/>
								</g>
								<g>
									<polygon style="fill:#9BA5A8;" points="167.012,356.333 162.672,354.181 162.672,283.233 167.012,285.385 									"/>
									<polygon style="fill:#FFFFFF;" points="167.012,285.38 162.672,283.233 214.72,257.802 219.06,259.948 									"/>
									<polygon style="fill:#D9D9D9;" points="219.06,330.897 167.012,356.333 167.012,285.385 219.06,259.949 									"/>
								</g>
								<g>
									<polygon style="fill:#9BA5A8;" points="171.693,358.733 167.353,356.582 167.353,285.634 171.693,287.785 									"/>
									<polygon style="fill:#FFFFFF;" points="171.692,287.78 167.353,285.634 219.401,260.203 223.74,262.349 									"/>
									<polygon style="fill:#D9D9D9;" points="223.741,333.297 171.693,358.733 171.693,287.785 223.741,262.349 									"/>
								</g>
							</g>
							<polygon style="fill:#74ADE3;" points="169.116,368.51 155.645,361.772 155.645,279.245 169.116,285.982 							"/>
							<polygon style="fill:#5B8FBD;" points="224.499,340.824 169.116,368.522 169.116,285.994 224.499,258.296 							"/>
							<polygon style="fill:#A6CCF0;" points="155.645,279.245 169.116,285.999 169.699,285.718 156.228,278.964 							"/>
							<polygon style="fill:#A6CCF0;" points="224.499,258.296 169.165,285.999 168.582,285.718 223.916,258.016 							"/>
							<polygon style="fill:#A6CCF0;" points="211.563,251.826 156.228,279.528 155.645,279.247 210.98,251.545 							"/>
						</g>
						<g>
							<path style="fill:#FFFFFF;" d="M159.035,348.188l-0.34,1.12c0,0,0.56,2.26,0.62,2.32c0.06,0.06,1.98,2.46,1.98,2.46
								l1.52,0.691l1.64,0.309c0,0,0.84-0.78,0.96-0.88c0.12-0.1,0.46-1.44,0.46-1.44l-0.289-1.643l-0.744-1.757l-1.527-1.56
								l-2.971-0.82L159.035,348.188z"/>
							<path style="fill:#728082;" d="M162.781,354.021c-1.771-0.885-3.206-3.038-3.206-4.809c0-0.723,0.242-1.267,0.646-1.601
								c-0.641,0.266-1.046,0.904-1.046,1.841c0,1.771,1.435,3.924,3.206,4.809c1.048,0.524,1.975,0.483,2.56-0.002
								C164.37,354.495,163.614,354.437,162.781,354.021z"/>
							<path style="fill:#A3C0C9;" d="M162.381,347.042c-1.07-0.535-2.04-0.599-2.76-0.276c-0.771,0.346-1.254,1.136-1.254,2.282
								c0,2.217,1.797,4.912,4.013,6.021c1.285,0.642,2.425,0.607,3.16,0.036c0.533-0.415,0.854-1.11,0.854-2.042
								C166.394,350.846,164.597,348.15,162.381,347.042z M160.221,347.611c0.57-0.236,1.326-0.178,2.16,0.239
								c1.77,0.885,3.206,3.038,3.206,4.809c0,0.723-0.242,1.267-0.646,1.601c-0.585,0.485-1.512,0.525-2.56,0.002
								c-1.771-0.885-3.206-3.039-3.206-4.809C159.175,348.514,159.58,347.876,160.221,347.611z"/>
						</g>
						<polygon style="fill:#FFFFFF;" points="166.913,339.369 157.849,334.836 157.849,293.197 166.913,297.73 						"/>
						<polygon style="fill:#EDEDED;" points="172.317,300.961 172.317,302.081 172.607,302.979 173.437,303.481 175.717,302.979 
							179.638,300.961 181.278,299.509 182.078,297.8 182.078,296.12 181.078,295.44 179.958,295.44 177.117,296.8 174.43,297.77 
							173.317,299.121 						"/>
						<polygon style="fill:#EDEDED;" points="172.317,352.625 172.317,353.745 172.607,354.643 173.437,355.146 175.717,354.643 
							179.638,352.625 181.278,351.173 182.078,349.465 182.078,347.784 181.078,347.104 179.958,347.104 177.117,348.465 
							174.43,349.434 173.317,350.785 						"/>
						<g>
							<g>
								<path style="fill:#728082;" d="M181.626,297.032c0,1.341-1.087,2.972-2.428,3.643l-4.429,2.017
									c-0.667,0.333-1.27,0.366-1.709,0.15c0.44,0.398,1.159,0.445,1.975,0.036l4.429-2.017c1.341-0.671,2.428-2.302,2.428-3.643
									c0-0.674-0.276-1.146-0.719-1.364C181.456,296.11,181.626,296.507,181.626,297.032z"/>
								<path style="fill:#A3C0C9;" d="M181.653,295.185c-0.549-0.271-1.304-0.23-2.138,0.187l-4.53,2.068
									c-1.676,0.838-3.035,2.877-3.035,4.554c0,0.692,0.241,1.202,0.631,1.518c0.555,0.449,1.421,0.492,2.405,0l4.53-2.068
									c1.677-0.838,3.036-2.877,3.036-4.554C182.551,296.047,182.207,295.458,181.653,295.185z M179.465,300.861l-4.429,2.017
									c-0.817,0.408-1.535,0.362-1.975-0.036c-0.283-0.256-0.453-0.653-0.453-1.177c0-1.341,1.087-2.972,2.428-3.643l4.429-2.017
									c0.667-0.333,1.27-0.366,1.709-0.15c0.444,0.218,0.719,0.69,0.719,1.364C181.893,298.56,180.806,300.19,179.465,300.861z"/>
							</g>
							<g>
								<path style="fill:#728082;" d="M181.626,348.648c0,1.341-1.087,2.972-2.428,3.643l-4.429,2.017
									c-0.667,0.333-1.27,0.366-1.709,0.15c0.44,0.398,1.159,0.445,1.975,0.036l4.429-2.017c1.341-0.671,2.428-2.302,2.428-3.643
									c0-0.674-0.276-1.146-0.719-1.364C181.456,347.726,181.626,348.123,181.626,348.648z"/>
								<path style="fill:#A3C0C9;" d="M181.653,346.801c-0.549-0.27-1.304-0.23-2.138,0.187l-4.53,2.068
									c-1.676,0.838-3.035,2.877-3.035,4.554c0,0.692,0.241,1.202,0.631,1.518c0.555,0.449,1.421,0.492,2.405,0l4.53-2.068
									c1.677-0.838,3.036-2.877,3.036-4.554C182.551,347.664,182.207,347.074,181.653,346.801z M179.465,352.477l-4.429,2.017
									c-0.817,0.408-1.535,0.362-1.975-0.036c-0.283-0.256-0.453-0.653-0.453-1.177c0-1.341,1.087-2.972,2.428-3.643l4.429-2.017
									c0.667-0.333,1.27-0.366,1.709-0.15c0.444,0.218,0.719,0.69,0.719,1.364C181.893,350.176,180.806,351.807,179.465,352.477z"
									/>
							</g>
						</g>
					</g>
					<g>
						<g>
							<polygon style="fill:#55B05F;" points="228.525,343.016 172.607,370.465 172.607,287.938 228.525,260.488 							"/>
							<g>
								<g>
									<polygon style="fill:#9CA89B;" points="179.477,362.619 175.137,360.468 175.137,289.519 179.477,291.671 									"/>
									<polygon style="fill:#FFFFFF;" points="179.477,291.666 175.137,289.52 227.185,264.089 231.525,266.235 									"/>
									<polygon style="fill:#D9D9D9;" points="231.525,337.183 179.477,362.619 179.477,291.671 231.525,266.235 									"/>
								</g>
								<g>
									<polygon style="fill:#9CA89B;" points="183.974,365.028 179.635,362.876 179.635,291.928 183.974,294.079 									"/>
									<polygon style="fill:#FFFFFF;" points="183.974,294.074 179.635,291.928 231.682,266.497 236.022,268.643 									"/>
									<polygon style="fill:#D9D9D9;" points="236.023,339.592 183.974,365.028 183.974,294.079 236.023,268.644 									"/>
								</g>
								<g>
									<polygon style="fill:#9CA89B;" points="188.655,367.428 184.315,365.277 184.315,294.328 188.655,296.48 									"/>
									<polygon style="fill:#FFFFFF;" points="188.655,296.475 184.315,294.329 236.363,268.898 240.702,271.044 									"/>
									<polygon style="fill:#D9D9D9;" points="240.703,341.992 188.655,367.428 188.655,296.48 240.703,271.044 									"/>
								</g>
							</g>
							<polygon style="fill:#74E37F;" points="186.079,377.204 172.607,370.467 172.607,287.939 186.079,294.677 							"/>
							<polygon style="fill:#5BBD64;" points="241.462,349.519 186.079,377.216 186.079,294.689 241.462,266.991 							"/>
							<polygon style="fill:#A3EDAB;" points="172.607,287.94 186.079,294.693 186.661,294.413 173.19,287.659 							"/>
							<polygon style="fill:#A3EDAB;" points="241.462,266.991 186.127,294.693 185.544,294.413 240.879,266.711 							"/>
							<polygon style="fill:#A3EDAB;" points="228.525,260.521 173.19,288.223 172.607,287.942 227.942,260.24 							"/>
						</g>
						<g>
							<path style="fill:#FFFFFF;" d="M175.997,356.883l-0.34,1.12c0,0,0.56,2.26,0.62,2.32c0.06,0.06,1.98,2.46,1.98,2.46
								l1.52,0.691l1.64,0.309c0,0,0.84-0.78,0.96-0.88c0.12-0.1,0.46-1.44,0.46-1.44l-0.289-1.643l-0.745-1.757l-1.526-1.56
								l-2.971-0.82L175.997,356.883z"/>
							<path style="fill:#758272;" d="M179.743,362.716c-1.77-0.885-3.206-3.039-3.206-4.809c0-0.723,0.242-1.267,0.646-1.601
								c-0.641,0.266-1.046,0.904-1.046,1.841c0,1.771,1.435,3.924,3.206,4.809c1.048,0.524,1.975,0.483,2.56-0.001
								C181.333,363.19,180.576,363.132,179.743,362.716z"/>
							<path style="fill:#A7C9A3;" d="M179.343,355.736c-1.07-0.535-2.04-0.599-2.76-0.276c-0.771,0.346-1.254,1.136-1.254,2.282
								c0,2.217,1.797,4.912,4.013,6.021c1.285,0.642,2.425,0.607,3.16,0.036c0.533-0.415,0.854-1.11,0.854-2.042
								C183.356,359.54,181.56,356.845,179.343,355.736z M177.183,356.306c0.57-0.236,1.327-0.178,2.16,0.238
								c1.77,0.885,3.206,3.039,3.206,4.809c0,0.723-0.242,1.267-0.646,1.601c-0.585,0.484-1.512,0.525-2.56,0.001
								c-1.771-0.885-3.206-3.038-3.206-4.809C176.137,357.209,176.542,356.571,177.183,356.306z"/>
						</g>
						<polygon style="fill:#FFFFFF;" points="183.875,348.064 174.811,343.53 174.811,301.891 183.875,306.424 						"/>
						<polygon style="fill:#EDEDED;" points="189.279,309.656 189.279,310.776 189.57,311.673 190.399,312.176 192.68,311.673 
							196.6,309.656 198.241,308.204 199.041,306.495 199.041,304.815 198.04,304.135 196.92,304.135 194.079,305.495 
							191.392,306.465 190.279,307.815 						"/>
						<polygon style="fill:#EDEDED;" points="189.279,361.32 189.279,362.44 189.57,363.338 190.399,363.841 192.68,363.338 
							196.6,361.32 198.241,359.868 199.041,358.16 199.041,356.479 198.04,355.799 196.92,355.799 194.079,357.159 
							191.392,358.129 190.279,359.48 						"/>
						<g>
							<g>
								<path style="fill:#758272;" d="M198.589,305.727c0,1.341-1.087,2.972-2.428,3.643l-4.429,2.017
									c-0.667,0.333-1.27,0.366-1.709,0.15c0.44,0.398,1.159,0.445,1.976,0.036l4.429-2.017c1.341-0.671,2.428-2.302,2.428-3.643
									c0-0.674-0.276-1.146-0.719-1.364C198.419,304.805,198.589,305.202,198.589,305.727z"/>
								<path style="fill:#A7C9A3;" d="M198.616,303.88c-0.549-0.271-1.304-0.23-2.138,0.187l-4.53,2.068
									c-1.676,0.838-3.035,2.877-3.035,4.553c0,0.692,0.241,1.202,0.631,1.518c0.555,0.449,1.42,0.492,2.405,0l4.53-2.068
									c1.676-0.838,3.035-2.877,3.035-4.553C199.513,304.742,199.17,304.153,198.616,303.88z M196.427,309.556l-4.429,2.017
									c-0.817,0.408-1.535,0.362-1.976-0.036c-0.283-0.256-0.453-0.653-0.453-1.177c0-1.341,1.087-2.972,2.428-3.643l4.429-2.017
									c0.667-0.333,1.27-0.366,1.709-0.15c0.444,0.218,0.719,0.69,0.719,1.364C198.855,307.254,197.768,308.885,196.427,309.556z"
									/>
							</g>
							<g>
								<path style="fill:#758272;" d="M198.589,357.343c0,1.341-1.087,2.972-2.428,3.643l-4.429,2.017
									c-0.667,0.333-1.27,0.366-1.709,0.15c0.44,0.398,1.159,0.445,1.976,0.036l4.429-2.017c1.341-0.671,2.428-2.302,2.428-3.643
									c0-0.674-0.276-1.146-0.719-1.364C198.419,356.421,198.589,356.818,198.589,357.343z"/>
								<path style="fill:#A7C9A3;" d="M198.616,355.496c-0.549-0.271-1.304-0.23-2.138,0.187l-4.53,2.068
									c-1.676,0.838-3.035,2.877-3.035,4.554c0,0.692,0.241,1.202,0.631,1.518c0.555,0.449,1.42,0.492,2.405,0l4.53-2.068
									c1.676-0.838,3.035-2.877,3.035-4.554C199.513,356.358,199.17,355.769,198.616,355.496z M196.427,361.172l-4.429,2.017
									c-0.817,0.408-1.535,0.361-1.976-0.036c-0.283-0.256-0.453-0.653-0.453-1.178c0-1.341,1.087-2.972,2.428-3.643l4.429-2.017
									c0.667-0.333,1.27-0.366,1.709-0.15c0.444,0.218,0.719,0.69,0.719,1.364C198.855,358.871,197.768,360.501,196.427,361.172z"
									/>
							</g>
						</g>
					</g>
					<g>
						<g>
							<polygon style="fill:#5583B0;" points="245.487,351.711 189.57,379.16 189.57,296.632 245.487,269.183 							"/>
							<g>
								<g>
									<polygon style="fill:#9BA5A8;" points="196.439,371.314 192.1,369.163 192.1,298.214 196.439,300.366 									"/>
									<polygon style="fill:#FFFFFF;" points="196.439,300.361 192.1,298.215 244.148,272.784 248.487,274.93 									"/>
									<polygon style="fill:#D9D9D9;" points="248.488,345.878 196.439,371.314 196.439,300.366 248.488,274.93 									"/>
								</g>
								<g>
									<polygon style="fill:#9BA5A8;" points="200.937,373.723 196.597,371.571 196.597,300.623 200.937,302.774 									"/>
									<polygon style="fill:#FFFFFF;" points="200.936,302.769 196.597,300.623 248.645,275.192 252.984,277.338 									"/>
									<polygon style="fill:#D9D9D9;" points="252.985,348.287 200.937,373.723 200.937,302.774 252.985,277.339 									"/>
								</g>
								<g>
									<polygon style="fill:#9BA5A8;" points="205.617,376.123 201.277,373.972 201.277,303.023 205.617,305.175 									"/>
									<polygon style="fill:#FFFFFF;" points="205.617,305.17 201.277,303.024 253.325,277.592 257.665,279.739 									"/>
									<polygon style="fill:#D9D9D9;" points="257.666,350.687 205.617,376.123 205.617,305.175 257.666,279.739 									"/>
								</g>
							</g>
							<polygon style="fill:#74ADE3;" points="203.041,385.899 189.57,379.162 189.57,296.634 203.041,303.371 							"/>
							<polygon style="fill:#5B8FBD;" points="258.424,358.214 203.041,385.911 203.041,303.383 258.424,275.686 							"/>
							<polygon style="fill:#A6CCF0;" points="189.57,296.634 203.041,303.388 203.624,303.108 190.153,296.354 							"/>
							<polygon style="fill:#A6CCF0;" points="258.424,275.686 203.089,303.388 202.506,303.108 257.841,275.405 							"/>
							<polygon style="fill:#A6CCF0;" points="245.487,269.215 190.153,296.918 189.57,296.637 244.904,268.935 							"/>
						</g>
						<g>
							<path style="fill:#FFFFFF;" d="M192.96,365.578l-0.34,1.12c0,0,0.56,2.26,0.62,2.32c0.06,0.06,1.98,2.46,1.98,2.46
								l1.52,0.691l1.64,0.309c0,0,0.84-0.78,0.96-0.88c0.12-0.1,0.46-1.44,0.46-1.44l-0.289-1.643l-0.744-1.757l-1.527-1.56
								l-2.971-0.82L192.96,365.578z"/>
							<path style="fill:#728082;" d="M196.706,371.41c-1.771-0.885-3.206-3.038-3.206-4.809c0-0.723,0.242-1.267,0.646-1.601
								c-0.641,0.265-1.046,0.904-1.046,1.841c0,1.771,1.435,3.924,3.206,4.809c1.048,0.524,1.975,0.483,2.56-0.002
								C198.295,371.885,197.539,371.827,196.706,371.41z"/>
							<path style="fill:#A3C0C9;" d="M196.305,364.431c-1.07-0.535-2.04-0.599-2.76-0.276c-0.771,0.346-1.254,1.136-1.254,2.282
								c0,2.217,1.797,4.912,4.013,6.021c1.285,0.642,2.425,0.607,3.16,0.036c0.533-0.415,0.854-1.11,0.854-2.042
								C200.319,368.235,198.522,365.54,196.305,364.431z M194.146,365c0.57-0.236,1.327-0.178,2.16,0.238
								c1.77,0.885,3.206,3.039,3.206,4.809c0,0.723-0.242,1.267-0.646,1.601c-0.585,0.484-1.512,0.525-2.56,0.002
								c-1.771-0.885-3.206-3.039-3.206-4.809C193.1,365.904,193.504,365.266,194.146,365z"/>
						</g>
						<polygon style="fill:#FFFFFF;" points="200.838,356.759 191.773,352.225 191.773,310.586 200.838,315.119 						"/>
						<polygon style="fill:#EDEDED;" points="206.242,318.35 206.242,319.471 206.532,320.368 207.362,320.871 209.642,320.368 
							213.563,318.35 215.203,316.899 216.003,315.19 216.003,313.51 215.003,312.83 213.883,312.83 211.042,314.19 
							208.355,315.159 207.242,316.51 						"/>
						<polygon style="fill:#EDEDED;" points="206.242,370.015 206.242,371.135 206.532,372.033 207.362,372.535 209.642,372.033 
							213.563,370.015 215.203,368.563 216.003,366.854 216.003,365.174 215.003,364.494 213.883,364.494 211.042,365.854 
							208.355,366.824 207.242,368.175 						"/>
						<g>
							<g>
								<path style="fill:#728082;" d="M215.551,314.421c0,1.341-1.087,2.972-2.428,3.643l-4.429,2.017
									c-0.667,0.333-1.27,0.366-1.709,0.15c0.44,0.398,1.159,0.445,1.976,0.036l4.429-2.017c1.341-0.671,2.428-2.302,2.428-3.643
									c0-0.674-0.276-1.146-0.719-1.364C215.381,313.5,215.551,313.897,215.551,314.421z"/>
								<path style="fill:#A3C0C9;" d="M215.578,312.575c-0.549-0.271-1.304-0.23-2.138,0.187l-4.53,2.068
									c-1.676,0.838-3.035,2.877-3.035,4.553c0,0.692,0.241,1.202,0.631,1.518c0.555,0.449,1.421,0.492,2.405,0l4.53-2.068
									c1.676-0.838,3.035-2.877,3.035-4.553C216.475,313.437,216.132,312.848,215.578,312.575z M213.389,318.251l-4.429,2.017
									c-0.817,0.408-1.535,0.362-1.976-0.036c-0.283-0.256-0.453-0.653-0.453-1.177c0-1.341,1.087-2.972,2.428-3.643l4.429-2.017
									c0.667-0.333,1.27-0.366,1.709-0.15c0.444,0.218,0.719,0.69,0.719,1.364C215.818,315.949,214.73,317.58,213.389,318.251z"/>
							</g>
							<g>
								<path style="fill:#728082;" d="M215.551,366.038c0,1.341-1.087,2.972-2.428,3.643l-4.429,2.017
									c-0.667,0.333-1.27,0.366-1.709,0.15c0.44,0.398,1.159,0.445,1.976,0.036l4.429-2.017c1.341-0.671,2.428-2.302,2.428-3.643
									c0-0.674-0.276-1.146-0.719-1.364C215.381,365.116,215.551,365.513,215.551,366.038z"/>
								<path style="fill:#A3C0C9;" d="M215.578,364.191c-0.549-0.271-1.304-0.23-2.138,0.187l-4.53,2.068
									c-1.676,0.838-3.035,2.877-3.035,4.553c0,0.692,0.241,1.202,0.631,1.518c0.555,0.449,1.421,0.492,2.405,0l4.53-2.068
									c1.676-0.838,3.035-2.877,3.035-4.553C216.475,365.053,216.132,364.464,215.578,364.191z M213.389,369.867l-4.429,2.017
									c-0.817,0.409-1.535,0.362-1.976-0.036c-0.283-0.256-0.453-0.653-0.453-1.177c0-1.341,1.087-2.972,2.428-3.643l4.429-2.017
									c0.667-0.334,1.27-0.366,1.709-0.15c0.444,0.218,0.719,0.69,0.719,1.364C215.818,367.565,214.73,369.196,213.389,369.867z"
									/>
							</g>
						</g>
					</g>
					<g>
						<g>
							<polygon style="fill:#B06E55;" points="262.45,360.406 206.532,387.855 206.532,305.327 262.45,277.878 							"/>
							<g>
								<g>
									<polygon style="fill:#A89D9B;" points="213.402,380.009 209.062,377.857 209.062,306.909 213.402,309.061 									"/>
									<polygon style="fill:#FFFFFF;" points="213.401,309.056 209.062,306.909 261.11,281.478 265.449,283.625 									"/>
									<polygon style="fill:#D9D9D9;" points="265.45,354.573 213.402,380.009 213.402,309.061 265.45,283.625 									"/>
								</g>
								<g>
									<polygon style="fill:#A89D9B;" points="217.899,382.418 213.559,380.266 213.559,309.318 217.899,311.469 									"/>
									<polygon style="fill:#FFFFFF;" points="217.898,311.464 213.559,309.318 265.607,283.887 269.947,286.033 									"/>
									<polygon style="fill:#D9D9D9;" points="269.947,356.982 217.899,382.418 217.899,311.469 269.947,286.034 									"/>
								</g>
								<g>
									<polygon style="fill:#A89D9B;" points="222.58,384.818 218.24,382.666 218.24,311.718 222.58,313.87 									"/>
									<polygon style="fill:#FFFFFF;" points="222.579,313.865 218.24,311.719 270.288,286.287 274.627,288.434 									"/>
									<polygon style="fill:#D9D9D9;" points="274.628,359.382 222.58,384.818 222.58,313.87 274.628,288.434 									"/>
								</g>
							</g>
							<polygon style="fill:#E39274;" points="220.003,394.594 206.532,387.857 206.532,305.329 220.003,312.066 							"/>
							<polygon style="fill:#BD755B;" points="275.386,366.909 220.003,394.606 220.003,312.078 275.386,284.381 							"/>
							<polygon style="fill:#E3B09D;" points="206.532,305.329 220.003,312.083 220.586,311.803 207.115,305.049 							"/>
							<polygon style="fill:#E3B09D;" points="275.386,284.381 220.051,312.083 219.469,311.803 274.803,284.1 							"/>
							<polygon style="fill:#E3B09D;" points="262.45,277.91 207.115,305.613 206.532,305.332 261.867,277.63 							"/>
						</g>
						<g>
							<path style="fill:#FFFFFF;" d="M209.922,374.272l-0.34,1.12c0,0,0.56,2.26,0.62,2.32s1.98,2.46,1.98,2.46l1.52,0.691
								l1.64,0.309c0,0,0.84-0.78,0.96-0.88c0.12-0.1,0.46-1.44,0.46-1.44l-0.289-1.643l-0.744-1.757l-1.527-1.56l-2.971-0.82
								L209.922,374.272z"/>
							<path style="fill:#827472;" d="M213.668,380.105c-1.77-0.885-3.206-3.039-3.206-4.809c0-0.723,0.242-1.267,0.646-1.601
								c-0.641,0.265-1.046,0.904-1.046,1.841c0,1.77,1.435,3.924,3.206,4.809c1.048,0.524,1.975,0.483,2.56-0.002
								C215.258,380.58,214.501,380.522,213.668,380.105z"/>
							<path style="fill:#C9AAA3;" d="M213.268,373.126c-1.07-0.535-2.04-0.599-2.76-0.276c-0.771,0.346-1.254,1.136-1.254,2.282
								c0,2.216,1.797,4.912,4.013,6.021c1.284,0.642,2.425,0.607,3.16,0.036c0.533-0.415,0.854-1.11,0.854-2.042
								C217.281,376.93,215.484,374.235,213.268,373.126z M211.108,373.695c0.57-0.236,1.327-0.178,2.16,0.238
								c1.77,0.885,3.206,3.038,3.206,4.809c0,0.723-0.242,1.267-0.646,1.601c-0.585,0.484-1.512,0.525-2.56,0.002
								c-1.771-0.885-3.206-3.039-3.206-4.809C210.062,374.599,210.467,373.961,211.108,373.695z"/>
						</g>
						<polygon style="fill:#FFFFFF;" points="217.8,365.453 208.736,360.92 208.736,319.281 217.8,323.814 						"/>
						<polygon style="fill:#EDEDED;" points="223.204,327.045 223.204,328.166 223.494,329.063 224.324,329.566 226.604,329.063 
							230.525,327.045 232.165,325.594 232.965,323.885 232.965,322.205 231.965,321.525 230.845,321.525 228.004,322.885 
							225.317,323.854 224.204,325.205 						"/>
						<polygon style="fill:#EDEDED;" points="223.204,378.71 223.204,379.83 223.494,380.728 224.324,381.23 226.604,380.728 
							230.525,378.71 232.165,377.258 232.965,375.549 232.965,373.869 231.965,373.189 230.845,373.189 228.004,374.549 
							225.317,375.519 224.204,376.87 						"/>
						<g>
							<g>
								<path style="fill:#827472;" d="M232.513,323.116c0,1.341-1.087,2.972-2.428,3.643l-4.429,2.017
									c-0.667,0.333-1.27,0.366-1.709,0.15c0.44,0.398,1.159,0.445,1.976,0.036l4.429-2.017c1.341-0.671,2.428-2.302,2.428-3.643
									c0-0.674-0.276-1.146-0.719-1.364C232.343,322.194,232.513,322.592,232.513,323.116z"/>
								<path style="fill:#C9AAA3;" d="M232.54,321.27c-0.549-0.27-1.304-0.23-2.138,0.187l-4.53,2.068
									c-1.676,0.838-3.035,2.877-3.035,4.554c0,0.692,0.241,1.202,0.631,1.518c0.555,0.449,1.421,0.492,2.405,0l4.53-2.068
									c1.676-0.838,3.036-2.877,3.036-4.554C233.438,322.132,233.094,321.543,232.54,321.27z M230.352,326.946l-4.429,2.017
									c-0.817,0.408-1.535,0.362-1.976-0.036c-0.283-0.256-0.453-0.653-0.453-1.177c0-1.341,1.087-2.972,2.428-3.643l4.429-2.017
									c0.667-0.333,1.27-0.366,1.709-0.15c0.444,0.218,0.719,0.69,0.719,1.364C232.78,324.644,231.693,326.275,230.352,326.946z"
									/>
							</g>
							<g>
								<path style="fill:#827472;" d="M232.513,374.732c0,1.341-1.087,2.972-2.428,3.643l-4.429,2.017
									c-0.667,0.333-1.27,0.366-1.709,0.15c0.44,0.398,1.159,0.445,1.976,0.037l4.429-2.017c1.341-0.671,2.428-2.302,2.428-3.643
									c0-0.674-0.276-1.146-0.719-1.364C232.343,373.811,232.513,374.208,232.513,374.732z"/>
								<path style="fill:#C9AAA3;" d="M232.54,372.886c-0.549-0.271-1.304-0.23-2.138,0.187l-4.53,2.068
									c-1.676,0.839-3.035,2.877-3.035,4.554c0,0.692,0.241,1.202,0.631,1.518c0.555,0.449,1.421,0.492,2.405,0l4.53-2.068
									c1.676-0.838,3.036-2.877,3.036-4.553C233.438,373.748,233.094,373.159,232.54,372.886z M230.352,378.562l-4.429,2.017
									c-0.817,0.408-1.535,0.362-1.976-0.037c-0.283-0.255-0.453-0.653-0.453-1.177c0-1.341,1.087-2.972,2.428-3.643l4.429-2.017
									c0.667-0.333,1.27-0.366,1.709-0.15c0.444,0.218,0.719,0.69,0.719,1.364C232.78,376.26,231.693,377.891,230.352,378.562z"/>
							</g>
						</g>
					</g>
				</g>
			</g>
		</g>
		<g>
			<g>
				<g>
					<polygon style="fill:#7086A5;" points="217.577,363.907 141.947,416.452 139.39,406.005 216.425,352.75 					"/>
					<polygon style="fill:#53677A;" points="141.948,416.452 63.832,377.385 61.28,366.969 139.396,406.036 					"/>
					<polygon style="fill:#7F98BC;" points="216.425,352.75 139.396,406.027 61.28,366.93 139.39,314.232 					"/>
				</g>
			</g>
		</g>
	</g>
	<polygon style="fill:#FFFFFF;" points="259.957,93.307 311.068,123.871 382.07,94.823 330.959,64.258 	"/>
	<g>
		<polygon style="opacity:0.05;" points="320.242,117.731 321.014,109.442 371.034,82.736 316.53,102.702 		"/>
		<g>
			<polygon style="opacity:0.05;" points="244.263,93.237 240.85,95.41 293.445,120.127 			"/>
			<g>
				<g>
					<g>
						<polygon style="fill:#AB9159;" points="320.242,117.731 319.166,108.67 371.034,82.736 371.034,82.439 320.448,57.443 
							244.263,95.535 294.849,120.828 304.203,125.506 						"/>
						<polygon style="fill:#D9B871;" points="320.215,117.448 319.166,108.373 371.034,82.439 320.448,57.146 244.263,95.239 
							294.849,120.532 304.203,125.209 						"/>
						<polygon style="fill:#FFFFFF;" points="302.413,120.714 314.479,114.681 317.233,116.058 305.167,122.091 						"/>
						<polygon style="fill:#C49E4C;" points="244.607,95.41 248.819,93.237 244.607,91.13 						"/>
						<g>
							<polygon style="fill:#FFFFFF;" points="369.828,82.413 295.005,119.923 245.299,95.048 245.299,93.927 320.122,58.658 
															"/>
							<polygon style="fill:#F0F0F0;" points="369.828,81.292 295.005,118.802 245.299,93.927 320.122,56.416 							"/>
							<polygon style="fill:#DBDBDB;" points="295.005,119.923 295.005,118.802 369.828,81.292 369.828,82.413 							"/>
						</g>
						<g>
							<polygon style="fill:#FFFFFF;" points="369.828,81.138 295.005,118.649 245.299,93.773 245.299,92.652 320.122,57.383 
															"/>
							<polygon style="fill:#F0F0F0;" points="369.828,80.018 295.005,117.528 245.299,92.652 320.122,55.142 							"/>
							<polygon style="fill:#DBDBDB;" points="295.005,118.649 295.005,117.528 369.828,80.018 369.828,81.138 							"/>
						</g>
						<g>
							<polygon style="fill:#FFFFFF;" points="369.828,79.864 295.005,117.374 245.299,92.498 245.299,91.378 320.122,56.109 
															"/>
							<polygon style="fill:#F0F0F0;" points="369.828,78.743 295.005,116.253 245.299,91.378 320.122,53.867 							"/>
							<polygon style="fill:#DBDBDB;" points="295.005,117.374 295.005,116.253 369.828,78.743 369.828,79.864 							"/>
						</g>
						<g>
							<polygon style="fill:#AB9159;" points="371.034,78.275 294.849,116.367 244.263,91.074 320.448,52.982 371.034,77.961 
															"/>
						</g>
						<g>
							<polygon style="fill:#EBC77A;" points="371.034,77.961 294.849,116.054 244.263,90.761 320.448,52.668 							"/>
						</g>
						<polygon style="fill:#AB9159;" points="244.263,90.761 244.263,95.535 244.607,95.713 244.607,90.927 						"/>
					</g>
					<polygon style="fill:#FFFFFF;" points="318,64.734 346.184,78.826 351.381,76.228 323.198,62.136 					"/>
				</g>
				<polygon style="opacity:0.05;" points="295.005,119.923 303.543,122.874 317.233,116.058 316.781,109.006 				"/>
				<g>
					<g>
						<polygon style="fill:#4E9955;" points="316.297,111.685 314.841,102.677 365.574,74.586 365.562,74.289 313.97,51.441 
							239.453,92.702 291.057,115.847 300.6,120.127 						"/>
						<polygon style="fill:#70DB7B;" points="316.259,111.403 314.829,102.381 365.562,74.289 313.958,51.145 239.44,92.405 
							291.045,115.55 300.587,119.83 						"/>
						<polygon style="fill:#FFFFFF;" points="298.61,115.414 310.411,108.88 313.221,110.14 301.419,116.674 						"/>
						<polygon style="fill:#438249;" points="239.791,92.563 243.909,90.214 239.611,88.286 						"/>
						<g>
							<polygon style="fill:#FFFFFF;" points="364.355,74.314 291.175,114.936 240.468,92.171 240.421,91.051 313.695,52.669 
															"/>
							<polygon style="fill:#F0F0F0;" points="364.308,73.194 291.128,113.816 240.421,91.051 313.601,50.429 							"/>
							<polygon style="fill:#DBDBDB;" points="291.175,114.936 291.128,113.816 364.308,73.194 364.355,74.314 							"/>
						</g>
						<g>
							<polygon style="fill:#FFFFFF;" points="364.302,73.04 291.121,113.662 240.414,90.897 240.367,89.778 313.642,51.395 							
								"/>
							<polygon style="fill:#F0F0F0;" points="364.255,71.921 291.074,112.543 240.367,89.778 313.547,49.156 							"/>
							<polygon style="fill:#DBDBDB;" points="291.121,113.662 291.074,112.543 364.255,71.921 364.302,73.04 							"/>
						</g>
						<g>
							<polygon style="fill:#FFFFFF;" points="364.248,71.767 291.068,112.389 240.36,89.624 240.313,88.504 313.588,50.122 							
								"/>
							<polygon style="fill:#F0F0F0;" points="364.201,70.647 291.021,111.269 240.313,88.504 313.494,47.883 							"/>
							<polygon style="fill:#DBDBDB;" points="291.068,112.389 291.021,111.269 364.201,70.647 364.248,71.767 							"/>
						</g>
						<g>
							<polygon style="fill:#4E9955;" points="365.387,70.129 290.87,111.39 239.265,88.245 313.783,46.984 365.374,69.815 							
								"/>
						</g>
						<g>
							<polygon style="fill:#74E37F;" points="365.374,69.815 290.856,111.076 239.252,87.932 313.769,46.671 							"/>
						</g>
						<polygon style="fill:#4E9955;" points="239.252,87.932 239.453,92.702 239.803,92.865 239.602,88.083 						"/>
					</g>
					<polygon style="fill:#FFFFFF;" points="311.831,58.829 340.582,71.724 345.665,68.909 316.914,56.014 					"/>
				</g>
			</g>
		</g>
	</g>
</g>
</svg>
